<mxfile host="Electron" modified="2024-03-18T16:03:13.713Z" agent="Mozilla/5.0 (Windows NT 10.0; Win64; x64) AppleWebKit/537.36 (KHTML, like Gecko) draw.io/21.1.2 Chrome/106.0.5249.199 Electron/21.4.3 Safari/537.36" etag="jAF21bYW-z-6hfTRg5k4" version="21.1.2" type="device">
  <diagram name="第 1 页" id="oY5g7hcKHf5gLau0a9CR">
    <mxGraphModel dx="1699" dy="1403" grid="1" gridSize="10" guides="1" tooltips="1" connect="1" arrows="1" fold="1" page="1" pageScale="1" pageWidth="827" pageHeight="1169" math="0" shadow="0">
      <root>
        <mxCell id="0" />
        <mxCell id="1" parent="0" />
        <mxCell id="tAYXmBa9l25-GKio6JQT-1" value="" style="rounded=1;whiteSpace=wrap;html=1;fillColor=#ffe6cc;strokeColor=#d79b00;" vertex="1" parent="1">
          <mxGeometry x="145" y="245" width="505" height="84" as="geometry" />
        </mxCell>
        <mxCell id="tAYXmBa9l25-GKio6JQT-2" value="" style="rounded=1;whiteSpace=wrap;html=1;fillColor=#ffe6cc;strokeColor=#d79b00;" vertex="1" parent="1">
          <mxGeometry x="143" y="400" width="507" height="80" as="geometry" />
        </mxCell>
        <mxCell id="tAYXmBa9l25-GKio6JQT-33" style="rounded=0;orthogonalLoop=1;jettySize=auto;html=1;exitX=0.5;exitY=1;exitDx=0;exitDy=0;entryX=0.288;entryY=-0.05;entryDx=0;entryDy=0;entryPerimeter=0;" edge="1" parent="1" source="tAYXmBa9l25-GKio6JQT-3" target="tAYXmBa9l25-GKio6JQT-56">
          <mxGeometry relative="1" as="geometry">
            <mxPoint x="290" y="510" as="targetPoint" />
          </mxGeometry>
        </mxCell>
        <mxCell id="tAYXmBa9l25-GKio6JQT-3" value="接入系统" style="rounded=1;whiteSpace=wrap;html=1;" vertex="1" parent="1">
          <mxGeometry x="245" y="415" width="90" height="45" as="geometry" />
        </mxCell>
        <mxCell id="tAYXmBa9l25-GKio6JQT-5" style="edgeStyle=orthogonalEdgeStyle;rounded=0;orthogonalLoop=1;jettySize=auto;html=1;exitX=0.5;exitY=1;exitDx=0;exitDy=0;entryX=0.5;entryY=0;entryDx=0;entryDy=0;" edge="1" parent="1" source="tAYXmBa9l25-GKio6JQT-6" target="tAYXmBa9l25-GKio6JQT-3">
          <mxGeometry relative="1" as="geometry" />
        </mxCell>
        <mxCell id="tAYXmBa9l25-GKio6JQT-6" value="APP" style="rounded=1;whiteSpace=wrap;html=1;" vertex="1" parent="1">
          <mxGeometry x="255" y="263.5" width="70" height="44" as="geometry" />
        </mxCell>
        <mxCell id="tAYXmBa9l25-GKio6JQT-11" style="edgeStyle=orthogonalEdgeStyle;rounded=0;orthogonalLoop=1;jettySize=auto;html=1;exitX=1;exitY=0.5;exitDx=0;exitDy=0;entryX=0;entryY=0.5;entryDx=0;entryDy=0;" edge="1" parent="1" source="tAYXmBa9l25-GKio6JQT-12" target="tAYXmBa9l25-GKio6JQT-6">
          <mxGeometry relative="1" as="geometry" />
        </mxCell>
        <mxCell id="tAYXmBa9l25-GKio6JQT-12" value="接入系统&lt;br&gt;IP 地址列表服务" style="rounded=1;whiteSpace=wrap;html=1;" vertex="1" parent="1">
          <mxGeometry x="-75" y="260" width="100" height="50" as="geometry" />
        </mxCell>
        <mxCell id="tAYXmBa9l25-GKio6JQT-13" style="edgeStyle=orthogonalEdgeStyle;rounded=0;orthogonalLoop=1;jettySize=auto;html=1;exitX=0.5;exitY=0;exitDx=0;exitDy=0;entryX=0.5;entryY=1;entryDx=0;entryDy=0;" edge="1" parent="1" source="tAYXmBa9l25-GKio6JQT-14" target="tAYXmBa9l25-GKio6JQT-12">
          <mxGeometry relative="1" as="geometry">
            <Array as="points" />
            <mxPoint x="125" y="360" as="targetPoint" />
          </mxGeometry>
        </mxCell>
        <mxCell id="tAYXmBa9l25-GKio6JQT-14" value="注册中心" style="rounded=1;whiteSpace=wrap;html=1;" vertex="1" parent="1">
          <mxGeometry x="-67.5" y="416" width="85" height="43" as="geometry" />
        </mxCell>
        <mxCell id="tAYXmBa9l25-GKio6JQT-15" value="注册服务实例" style="text;html=1;align=center;verticalAlign=middle;resizable=0;points=[];autosize=1;strokeColor=none;fillColor=none;" vertex="1" parent="1">
          <mxGeometry x="40" y="411" width="100" height="30" as="geometry" />
        </mxCell>
        <mxCell id="tAYXmBa9l25-GKio6JQT-17" value="随机选取机器" style="text;html=1;align=center;verticalAlign=middle;resizable=0;points=[];autosize=1;strokeColor=none;fillColor=none;" vertex="1" parent="1">
          <mxGeometry x="31" y="256" width="100" height="30" as="geometry" />
        </mxCell>
        <mxCell id="tAYXmBa9l25-GKio6JQT-18" style="edgeStyle=orthogonalEdgeStyle;rounded=0;orthogonalLoop=1;jettySize=auto;html=1;entryX=1;entryY=0.5;entryDx=0;entryDy=0;exitX=0;exitY=0.5;exitDx=0;exitDy=0;" edge="1" parent="1" source="tAYXmBa9l25-GKio6JQT-3" target="tAYXmBa9l25-GKio6JQT-14">
          <mxGeometry relative="1" as="geometry">
            <Array as="points" />
          </mxGeometry>
        </mxCell>
        <mxCell id="tAYXmBa9l25-GKio6JQT-19" value="..." style="text;html=1;align=center;verticalAlign=middle;resizable=0;points=[];autosize=1;strokeColor=none;fillColor=none;fontSize=18;fontColor=#000000;" vertex="1" parent="1">
          <mxGeometry x="360" y="420" width="40" height="40" as="geometry" />
        </mxCell>
        <mxCell id="tAYXmBa9l25-GKio6JQT-20" value="接入层" style="text;html=1;align=center;verticalAlign=middle;resizable=0;points=[];autosize=1;fillColor=none;fontColor=#3399FF;fontStyle=1;fontSize=15;" vertex="1" parent="1">
          <mxGeometry x="150" y="402.5" width="70" height="30" as="geometry" />
        </mxCell>
        <mxCell id="tAYXmBa9l25-GKio6JQT-22" value="客户端" style="text;html=1;align=center;verticalAlign=middle;resizable=0;points=[];autosize=1;fillColor=none;fontColor=#3399FF;fontStyle=1;fontSize=15;" vertex="1" parent="1">
          <mxGeometry x="161.5" y="255" width="70" height="30" as="geometry" />
        </mxCell>
        <mxCell id="tAYXmBa9l25-GKio6JQT-24" value="APP" style="rounded=1;whiteSpace=wrap;html=1;" vertex="1" parent="1">
          <mxGeometry x="365" y="265" width="70" height="44" as="geometry" />
        </mxCell>
        <mxCell id="tAYXmBa9l25-GKio6JQT-25" value="APP" style="rounded=1;whiteSpace=wrap;html=1;" vertex="1" parent="1">
          <mxGeometry x="465" y="263.5" width="70" height="44" as="geometry" />
        </mxCell>
        <mxCell id="tAYXmBa9l25-GKio6JQT-34" style="rounded=0;orthogonalLoop=1;jettySize=auto;html=1;exitX=0.5;exitY=1;exitDx=0;exitDy=0;entryX=0.627;entryY=-0.012;entryDx=0;entryDy=0;entryPerimeter=0;" edge="1" parent="1" source="tAYXmBa9l25-GKio6JQT-26" target="tAYXmBa9l25-GKio6JQT-56">
          <mxGeometry relative="1" as="geometry" />
        </mxCell>
        <mxCell id="tAYXmBa9l25-GKio6JQT-26" value="接入系统" style="rounded=1;whiteSpace=wrap;html=1;" vertex="1" parent="1">
          <mxGeometry x="414" y="415" width="90" height="45" as="geometry" />
        </mxCell>
        <mxCell id="tAYXmBa9l25-GKio6JQT-40" style="rounded=0;orthogonalLoop=1;jettySize=auto;html=1;exitX=0.183;exitY=1.011;exitDx=0;exitDy=0;entryX=0.5;entryY=0;entryDx=0;entryDy=0;exitPerimeter=0;" edge="1" parent="1" source="tAYXmBa9l25-GKio6JQT-27" target="tAYXmBa9l25-GKio6JQT-35">
          <mxGeometry relative="1" as="geometry" />
        </mxCell>
        <mxCell id="tAYXmBa9l25-GKio6JQT-46" style="rounded=0;orthogonalLoop=1;jettySize=auto;html=1;entryX=0.5;entryY=0;entryDx=0;entryDy=0;exitX=0.596;exitY=1;exitDx=0;exitDy=0;exitPerimeter=0;" edge="1" parent="1" source="tAYXmBa9l25-GKio6JQT-27" target="tAYXmBa9l25-GKio6JQT-44">
          <mxGeometry relative="1" as="geometry">
            <mxPoint x="445" y="746" as="sourcePoint" />
          </mxGeometry>
        </mxCell>
        <mxCell id="tAYXmBa9l25-GKio6JQT-27" value="" style="rounded=1;whiteSpace=wrap;html=1;fillColor=#ffe6cc;strokeColor=#d79b00;" vertex="1" parent="1">
          <mxGeometry x="143" y="646" width="507" height="90" as="geometry" />
        </mxCell>
        <mxCell id="tAYXmBa9l25-GKio6JQT-28" value="服务层" style="text;html=1;align=center;verticalAlign=middle;resizable=0;points=[];autosize=1;fillColor=none;fontColor=#3399FF;fontStyle=1;fontSize=15;" vertex="1" parent="1">
          <mxGeometry x="147.5" y="646" width="70" height="30" as="geometry" />
        </mxCell>
        <mxCell id="tAYXmBa9l25-GKio6JQT-29" value="服务1" style="rounded=1;whiteSpace=wrap;html=1;" vertex="1" parent="1">
          <mxGeometry x="179" y="676" width="80" height="35" as="geometry" />
        </mxCell>
        <mxCell id="tAYXmBa9l25-GKio6JQT-32" value="接入层维护与客户端的长连接, 与业务层分离, 可防止频繁重启, 以及长连接频繁断开重连" style="rounded=1;whiteSpace=wrap;html=1;fillColor=none;strokeColor=none;fontColor=#FF0000;" vertex="1" parent="1">
          <mxGeometry x="350" y="340" width="245" height="42.5" as="geometry" />
        </mxCell>
        <mxCell id="tAYXmBa9l25-GKio6JQT-41" style="edgeStyle=orthogonalEdgeStyle;rounded=0;orthogonalLoop=1;jettySize=auto;html=1;exitX=0.5;exitY=1;exitDx=0;exitDy=0;entryX=0.5;entryY=0;entryDx=0;entryDy=0;" edge="1" parent="1" source="tAYXmBa9l25-GKio6JQT-35" target="tAYXmBa9l25-GKio6JQT-36">
          <mxGeometry relative="1" as="geometry" />
        </mxCell>
        <mxCell id="tAYXmBa9l25-GKio6JQT-35" value="本地缓存" style="rounded=1;whiteSpace=wrap;html=1;" vertex="1" parent="1">
          <mxGeometry x="190" y="796" width="90" height="45" as="geometry" />
        </mxCell>
        <mxCell id="tAYXmBa9l25-GKio6JQT-42" style="rounded=0;orthogonalLoop=1;jettySize=auto;html=1;exitX=0.5;exitY=1;exitDx=0;exitDy=0;" edge="1" parent="1" source="tAYXmBa9l25-GKio6JQT-36">
          <mxGeometry relative="1" as="geometry">
            <mxPoint x="235" y="966" as="targetPoint" />
          </mxGeometry>
        </mxCell>
        <mxCell id="tAYXmBa9l25-GKio6JQT-36" value="Redis 缓存" style="rounded=1;whiteSpace=wrap;html=1;" vertex="1" parent="1">
          <mxGeometry x="190" y="876" width="90" height="45" as="geometry" />
        </mxCell>
        <mxCell id="tAYXmBa9l25-GKio6JQT-37" value="" style="rounded=1;whiteSpace=wrap;html=1;fillColor=#ffe6cc;strokeColor=#d79b00;" vertex="1" parent="1">
          <mxGeometry x="150" y="968" width="500" height="78" as="geometry" />
        </mxCell>
        <mxCell id="tAYXmBa9l25-GKio6JQT-38" value="DB" style="text;html=1;align=center;verticalAlign=middle;resizable=0;points=[];autosize=1;fillColor=none;fontColor=#3399FF;fontStyle=1;fontSize=15;" vertex="1" parent="1">
          <mxGeometry x="170" y="992" width="50" height="30" as="geometry" />
        </mxCell>
        <mxCell id="tAYXmBa9l25-GKio6JQT-39" value="MySQL" style="rounded=1;whiteSpace=wrap;html=1;" vertex="1" parent="1">
          <mxGeometry x="289" y="984.5" width="90" height="45" as="geometry" />
        </mxCell>
        <mxCell id="tAYXmBa9l25-GKio6JQT-43" value="读取" style="text;html=1;align=center;verticalAlign=middle;resizable=0;points=[];autosize=1;strokeColor=none;fillColor=none;" vertex="1" parent="1">
          <mxGeometry x="180" y="756" width="50" height="30" as="geometry" />
        </mxCell>
        <mxCell id="tAYXmBa9l25-GKio6JQT-45" style="rounded=0;orthogonalLoop=1;jettySize=auto;html=1;exitX=0.5;exitY=1;exitDx=0;exitDy=0;" edge="1" parent="1" source="tAYXmBa9l25-GKio6JQT-44">
          <mxGeometry relative="1" as="geometry">
            <mxPoint x="445" y="966" as="targetPoint" />
          </mxGeometry>
        </mxCell>
        <mxCell id="tAYXmBa9l25-GKio6JQT-49" style="rounded=0;orthogonalLoop=1;jettySize=auto;html=1;exitX=1;exitY=0.5;exitDx=0;exitDy=0;entryX=0.5;entryY=1;entryDx=0;entryDy=0;edgeStyle=orthogonalEdgeStyle;" edge="1" parent="1" source="tAYXmBa9l25-GKio6JQT-44" target="tAYXmBa9l25-GKio6JQT-48">
          <mxGeometry relative="1" as="geometry" />
        </mxCell>
        <mxCell id="tAYXmBa9l25-GKio6JQT-44" value="异步写服务" style="rounded=1;whiteSpace=wrap;html=1;" vertex="1" parent="1">
          <mxGeometry x="400" y="841" width="90" height="45" as="geometry" />
        </mxCell>
        <mxCell id="tAYXmBa9l25-GKio6JQT-47" value="提交弹幕后异步发MQ" style="text;html=1;align=center;verticalAlign=middle;resizable=0;points=[];autosize=1;strokeColor=none;fillColor=none;" vertex="1" parent="1">
          <mxGeometry x="375" y="776" width="140" height="30" as="geometry" />
        </mxCell>
        <mxCell id="tAYXmBa9l25-GKio6JQT-51" style="edgeStyle=orthogonalEdgeStyle;rounded=0;orthogonalLoop=1;jettySize=auto;html=1;exitX=1;exitY=0.5;exitDx=0;exitDy=0;entryX=1;entryY=0.5;entryDx=0;entryDy=0;" edge="1" parent="1" source="tAYXmBa9l25-GKio6JQT-48" target="tAYXmBa9l25-GKio6JQT-2">
          <mxGeometry relative="1" as="geometry">
            <mxPoint x="569" y="490" as="targetPoint" />
            <Array as="points">
              <mxPoint x="720" y="694" />
              <mxPoint x="720" y="440" />
            </Array>
          </mxGeometry>
        </mxCell>
        <mxCell id="tAYXmBa9l25-GKio6JQT-48" value="推送服务" style="rounded=1;whiteSpace=wrap;html=1;" vertex="1" parent="1">
          <mxGeometry x="529" y="676" width="80" height="35" as="geometry" />
        </mxCell>
        <mxCell id="tAYXmBa9l25-GKio6JQT-50" value="发MQ推送最新弹幕" style="text;html=1;align=center;verticalAlign=middle;resizable=0;points=[];autosize=1;strokeColor=none;fillColor=none;" vertex="1" parent="1">
          <mxGeometry x="560" y="786" width="130" height="30" as="geometry" />
        </mxCell>
        <mxCell id="tAYXmBa9l25-GKio6JQT-52" value="TiDB" style="rounded=1;whiteSpace=wrap;html=1;" vertex="1" parent="1">
          <mxGeometry x="404" y="984.5" width="90" height="45" as="geometry" />
        </mxCell>
        <mxCell id="tAYXmBa9l25-GKio6JQT-53" value="..." style="text;html=1;align=center;verticalAlign=middle;resizable=0;points=[];autosize=1;strokeColor=none;fillColor=none;fontSize=18;fontColor=#000000;" vertex="1" parent="1">
          <mxGeometry x="362" y="668.5" width="40" height="40" as="geometry" />
        </mxCell>
        <mxCell id="tAYXmBa9l25-GKio6JQT-54" value="服务2" style="rounded=1;whiteSpace=wrap;html=1;" vertex="1" parent="1">
          <mxGeometry x="275" y="675.5" width="80" height="35" as="geometry" />
        </mxCell>
        <mxCell id="tAYXmBa9l25-GKio6JQT-55" value="服务 N" style="rounded=1;whiteSpace=wrap;html=1;" vertex="1" parent="1">
          <mxGeometry x="414" y="676" width="80" height="35" as="geometry" />
        </mxCell>
        <mxCell id="tAYXmBa9l25-GKio6JQT-61" style="edgeStyle=orthogonalEdgeStyle;rounded=0;orthogonalLoop=1;jettySize=auto;html=1;exitX=0.25;exitY=1;exitDx=0;exitDy=0;entryX=0.25;entryY=0;entryDx=0;entryDy=0;" edge="1" parent="1" source="tAYXmBa9l25-GKio6JQT-56" target="tAYXmBa9l25-GKio6JQT-27">
          <mxGeometry relative="1" as="geometry" />
        </mxCell>
        <mxCell id="tAYXmBa9l25-GKio6JQT-62" style="edgeStyle=orthogonalEdgeStyle;rounded=0;orthogonalLoop=1;jettySize=auto;html=1;exitX=0.645;exitY=1.025;exitDx=0;exitDy=0;entryX=0.645;entryY=0.044;entryDx=0;entryDy=0;entryPerimeter=0;exitPerimeter=0;" edge="1" parent="1" source="tAYXmBa9l25-GKio6JQT-56" target="tAYXmBa9l25-GKio6JQT-27">
          <mxGeometry relative="1" as="geometry" />
        </mxCell>
        <mxCell id="tAYXmBa9l25-GKio6JQT-66" style="edgeStyle=orthogonalEdgeStyle;rounded=0;orthogonalLoop=1;jettySize=auto;html=1;exitX=0;exitY=0.5;exitDx=0;exitDy=0;entryX=0.5;entryY=1;entryDx=0;entryDy=0;" edge="1" parent="1" source="tAYXmBa9l25-GKio6JQT-56" target="tAYXmBa9l25-GKio6JQT-14">
          <mxGeometry relative="1" as="geometry" />
        </mxCell>
        <mxCell id="tAYXmBa9l25-GKio6JQT-56" value="" style="rounded=1;whiteSpace=wrap;html=1;fillColor=#ffe6cc;strokeColor=#d79b00;" vertex="1" parent="1">
          <mxGeometry x="143" y="520" width="507" height="80" as="geometry" />
        </mxCell>
        <mxCell id="tAYXmBa9l25-GKio6JQT-57" value="路由服务1" style="rounded=1;whiteSpace=wrap;html=1;" vertex="1" parent="1">
          <mxGeometry x="245" y="535" width="90" height="45" as="geometry" />
        </mxCell>
        <mxCell id="tAYXmBa9l25-GKio6JQT-58" value="..." style="text;html=1;align=center;verticalAlign=middle;resizable=0;points=[];autosize=1;strokeColor=none;fillColor=none;fontSize=18;fontColor=#000000;" vertex="1" parent="1">
          <mxGeometry x="360" y="540" width="40" height="40" as="geometry" />
        </mxCell>
        <mxCell id="tAYXmBa9l25-GKio6JQT-59" value="路由服务" style="text;html=1;align=center;verticalAlign=middle;resizable=0;points=[];autosize=1;fillColor=none;fontColor=#3399FF;fontStyle=1;fontSize=15;" vertex="1" parent="1">
          <mxGeometry x="145" y="522.5" width="80" height="30" as="geometry" />
        </mxCell>
        <mxCell id="tAYXmBa9l25-GKio6JQT-60" value="路由服务N" style="rounded=1;whiteSpace=wrap;html=1;" vertex="1" parent="1">
          <mxGeometry x="414" y="535" width="90" height="45" as="geometry" />
        </mxCell>
        <mxCell id="tAYXmBa9l25-GKio6JQT-63" value="接入层维护与与路由服务保持长连接" style="rounded=1;whiteSpace=wrap;html=1;fillColor=none;strokeColor=none;fontColor=#FF0000;" vertex="1" parent="1">
          <mxGeometry x="60" y="480" width="245" height="42.5" as="geometry" />
        </mxCell>
        <mxCell id="tAYXmBa9l25-GKio6JQT-64" value="接入系统收到推送服务后，会感觉房间号查找自身存储的用户会话然后进行推送" style="rounded=1;whiteSpace=wrap;html=1;fillColor=none;strokeColor=none;fontColor=#FF0000;" vertex="1" parent="1">
          <mxGeometry x="652" y="382.5" width="150" height="42.5" as="geometry" />
        </mxCell>
        <mxCell id="tAYXmBa9l25-GKio6JQT-65" value="推送服务将&lt;br&gt;消息放入MQ" style="text;html=1;align=center;verticalAlign=middle;resizable=0;points=[];autosize=1;strokeColor=none;fillColor=none;" vertex="1" parent="1">
          <mxGeometry x="670" y="595" width="90" height="40" as="geometry" />
        </mxCell>
        <mxCell id="tAYXmBa9l25-GKio6JQT-67" value="注册服务实例" style="text;html=1;align=center;verticalAlign=middle;resizable=0;points=[];autosize=1;strokeColor=none;fillColor=none;" vertex="1" parent="1">
          <mxGeometry y="535" width="100" height="30" as="geometry" />
        </mxCell>
        <mxCell id="tAYXmBa9l25-GKio6JQT-68" value="对于超大并发请求可&lt;br&gt;增加本地缓存，用于缓存最近&lt;br&gt;几秒的数据，减轻Redis压力" style="text;html=1;align=center;verticalAlign=middle;resizable=0;points=[];autosize=1;strokeColor=none;fillColor=none;" vertex="1" parent="1">
          <mxGeometry x="10" y="788.5" width="180" height="60" as="geometry" />
        </mxCell>
      </root>
    </mxGraphModel>
  </diagram>
</mxfile>
